<svg width="220" height="48" viewBox="0 0 220 48" fill="none" xmlns="http://www.w3.org/2000/svg">
<path d="M48 24C48 37.2548 37.2548 48 24 48C10.7452 48 0 37.2548 0 24C0 10.7452 10.7452 0 24 0C37.2548 0 48 10.7452 48 24Z" fill="#000035"/>
<path d="M32.7583 24.1136L36.3981 15.9241L43.4502 32.9857H35.9431L32.7583 24.1136Z" fill="#14A3DC" stroke="#14A3DC" stroke-width="1.38323" stroke-linejoin="round"/>
<path d="M10.2369 23.7726L13.8767 15.583L20.9289 32.6446H13.4218L10.2369 23.7726Z" fill="#14A3DC" stroke="#14A3DC" stroke-width="1.38323" stroke-linejoin="round"/>
<path d="M34.8057 8.9856H26.5273L16.0379 32.6444L24.7962 32.7581L34.8057 8.9856Z" fill="#FF792E" stroke="#FF792E" stroke-width="1.45903" stroke-linejoin="round"/>
<path d="M22.1801 8.9856H13.9906L3.41235 32.54L12.1706 32.6444L22.1801 8.9856Z" fill="#FE4A00" stroke="#FE4A00" stroke-width="1.45903" stroke-linejoin="round"/>
<path d="M60.1639 30.023C59.2874 30.023 58.5768 29.3125 58.5768 28.4359V28.2878C58.5768 27.4113 59.2874 26.7007 60.1639 26.7007H64.943C65.3418 26.7007 65.6623 26.5721 65.9044 26.3149C66.1465 26.0577 66.2675 25.7576 66.2675 25.4146C66.2675 25.0574 66.1465 24.7502 65.9044 24.493C65.6623 24.2358 65.3418 24.1071 64.943 24.1071H62.8281C61.9308 24.1071 61.1119 23.9285 60.3713 23.5713C59.645 23.214 59.0682 22.7068 58.6409 22.0494C58.2136 21.3778 58 20.5705 58 19.6274C58 18.6986 58.2065 17.8912 58.6195 17.2053C59.0326 16.5194 59.588 15.9835 60.2859 15.5977C60.9837 15.2119 61.7599 15.019 62.6144 15.019H67.7353C68.6119 15.019 69.3225 15.7295 69.3225 16.6061V16.7542C69.3225 17.6307 68.6119 18.3413 67.7353 18.3413H63.1272C62.7854 18.3413 62.5005 18.4628 62.2726 18.7057C62.059 18.9343 61.9522 19.1987 61.9522 19.4987C61.9522 19.8274 62.059 20.1061 62.2726 20.3347C62.5005 20.5633 62.7854 20.6777 63.1272 20.6777H65.3703C66.353 20.6777 67.2075 20.8634 67.9339 21.2349C68.6745 21.6065 69.2441 22.128 69.6429 22.7996C70.0417 23.457 70.2411 24.2358 70.2411 25.136C70.2411 26.1648 70.0275 27.0437 69.6002 27.7724C69.1872 28.5012 68.6246 29.0585 67.9125 29.4443C67.2147 29.8301 66.4384 30.023 65.5839 30.023H60.1639ZM77.6054 30.3017C76.466 30.3017 75.469 30.0874 74.6145 29.6587C73.7743 29.2157 73.1191 28.6227 72.6491 27.8796C72.1934 27.1223 71.9655 26.272 71.9655 25.3289V20.5715C71.9655 19.6949 72.6761 18.9843 73.5526 18.9843H74.0742C74.9508 18.9843 75.6613 19.6949 75.6613 20.5715V25.1574C75.6613 25.6433 75.8322 26.072 76.174 26.4435C76.5301 26.815 76.9858 27.0008 77.5413 27.0008C78.0967 27.0008 78.5454 26.815 78.8872 26.4435C79.229 26.072 79.3999 25.6433 79.3999 25.1574V20.5715C79.3999 19.6949 80.1104 18.9843 80.987 18.9843H81.53C82.4065 18.9843 83.1171 19.6949 83.1171 20.5715V25.3289C83.1171 26.272 82.8963 27.1223 82.4548 27.8796C82.0133 28.6227 81.3795 29.2157 80.5535 29.6587C79.7274 30.0874 78.7447 30.3017 77.6054 30.3017ZM86.8212 30.023C85.9446 30.023 85.234 29.3125 85.234 28.4359V23.5498C85.234 22.5925 85.4476 21.7565 85.8749 21.042C86.3164 20.3133 86.9288 19.7488 87.7122 19.3487C88.4955 18.9343 89.4283 18.7271 90.5106 18.7271C91.3224 18.7271 92.0419 18.8486 92.6683 19.0915C93.3012 19.3314 93.823 19.6409 94.2335 20.0201C94.2436 20.0294 94.2568 20.0346 94.2705 20.0346C94.2843 20.0346 94.2974 20.0294 94.3075 20.0201C94.7181 19.6409 95.2327 19.3314 95.8516 19.0915C96.4783 18.8486 97.2044 18.7271 98.0304 18.7271C99.113 18.7271 100.053 18.9343 100.851 19.3487C101.648 19.7488 102.261 20.3133 102.688 21.042C103.115 21.7565 103.329 22.5925 103.329 23.5498V28.4359C103.329 29.3125 102.618 30.023 101.742 30.023H101.215C100.34 30.023 99.6304 29.3158 99.6274 28.4413L99.6113 23.7213C99.6113 23.2641 99.4547 22.864 99.1415 22.521C98.828 22.1781 98.4078 22.0066 97.8811 22.0066C97.354 22.0066 96.9269 22.1781 96.5992 22.521C96.286 22.864 96.1294 23.2641 96.1294 23.7213V28.4359C96.1294 29.3125 95.4188 30.023 94.5422 30.023H94.0207C93.1441 30.023 92.4335 29.3125 92.4335 28.4359V23.7213C92.4335 23.2641 92.2696 22.864 91.9422 22.521C91.6144 22.1781 91.1873 22.0066 90.6603 22.0066C90.1474 22.0066 89.7273 22.1781 89.3998 22.521C89.0865 22.864 88.9299 23.2641 88.9299 23.7213V28.4359C88.9299 29.3125 88.2193 30.023 87.3427 30.023H86.8212ZM117.085 30.023C115.845 30.023 114.749 29.8015 113.795 29.3586C112.841 28.9156 112.093 28.2797 111.552 27.4509C111.01 26.6221 110.74 25.6433 110.74 24.5144C110.74 23.2712 111.003 22.2209 111.53 21.3636C112.057 20.4919 112.748 19.8346 113.602 19.3916C114.471 18.9486 115.411 18.7271 116.423 18.7271C117.491 18.7271 118.423 18.9558 119.221 19.413C120.018 19.856 120.631 20.4847 121.058 21.2992C121.5 22.1138 121.72 23.064 121.72 24.15C121.72 24.3786 121.706 24.643 121.678 24.9431C121.635 25.3707 121.264 25.6719 120.834 25.6719H115.926C115.243 25.6719 114.762 26.3822 115.354 26.7221C115.753 26.9508 116.259 27.0651 116.871 27.0651H119.024C119.841 27.0651 120.503 27.7273 120.503 28.5441C120.503 29.3609 119.841 30.023 119.024 30.023H117.085ZM114.457 23.507H118.217C118.203 22.9926 118.039 22.5567 117.726 22.1995C117.412 21.8423 116.964 21.6636 116.38 21.6636C115.782 21.6636 115.326 21.8494 115.012 22.2209C114.699 22.5782 114.514 23.0069 114.457 23.507ZM124.58 25.8648C123.84 25.8648 123.24 25.265 123.24 24.5251C123.24 23.7853 123.84 23.1855 124.58 23.1855H127.946C128.686 23.1855 129.286 23.7853 129.286 24.5251C129.286 25.265 128.686 25.8648 127.946 25.8648H124.58ZM135.979 30.023C135.011 30.023 134.163 29.8158 133.437 29.4014C132.71 28.9728 132.148 28.4154 131.749 27.7296C131.35 27.0294 131.151 26.2506 131.151 25.3932V16.6061C131.151 15.7295 131.861 15.019 132.738 15.019H133.644C134.52 15.019 135.231 15.7295 135.231 16.6061V25.5433C135.231 25.8576 135.338 26.1291 135.552 26.3578C135.78 26.5864 136.05 26.7007 136.363 26.7007H138.729C139.605 26.7007 140.316 27.4113 140.316 28.2878V28.4359C140.316 29.3125 139.605 30.023 138.729 30.023H135.979ZM147.732 30.023C146.493 30.023 145.396 29.8015 144.442 29.3586C143.487 28.9156 142.74 28.2797 142.198 27.4509C141.657 26.6221 141.387 25.6433 141.387 24.5144C141.387 23.2712 141.65 22.2209 142.177 21.3636C142.704 20.4919 143.395 19.8346 144.249 19.3916C145.118 18.9486 146.058 18.7271 147.069 18.7271C148.138 18.7271 149.07 18.9558 149.868 19.413C150.665 19.856 151.278 20.4847 151.705 21.2992C152.147 22.1138 152.367 23.064 152.367 24.15C152.367 24.3786 152.353 24.643 152.325 24.9431C152.282 25.3707 151.911 25.6719 151.481 25.6719H146.573C145.89 25.6719 145.409 26.3822 146.001 26.7221C146.4 26.9508 146.906 27.0651 147.518 27.0651H149.671C150.488 27.0651 151.15 27.7273 151.15 28.5441C151.15 29.3609 150.488 30.023 149.671 30.023H147.732ZM145.104 23.507H148.864C148.849 22.9926 148.686 22.5567 148.372 22.1995C148.059 21.8423 147.611 21.6636 147.027 21.6636C146.429 21.6636 145.973 21.8494 145.66 22.2209C145.346 22.5782 145.161 23.0069 145.104 23.507ZM158.63 30.3017C157.676 30.3017 156.828 30.0588 156.088 29.5729C155.347 29.0871 154.763 28.4226 154.336 27.5795C153.923 26.7221 153.716 25.7505 153.716 24.6644C153.716 23.5213 153.966 22.4996 154.464 21.5993C154.977 20.6991 155.689 19.9989 156.601 19.4987C157.526 18.9843 158.602 18.7271 159.826 18.7271C161.037 18.7271 162.084 18.9772 162.967 19.4773C163.85 19.9775 164.526 20.6705 164.996 21.5565C165.48 22.4281 165.723 23.4213 165.723 24.5358V28.4359C165.723 29.3125 165.012 30.023 164.136 30.023H163.012C162.539 30.023 162.155 29.6392 162.155 29.1657V28.3617C162.155 28.3322 162.131 28.3083 162.102 28.3083C162.082 28.3083 162.064 28.3192 162.054 28.3365C161.742 28.9095 161.313 29.3788 160.766 29.7444C160.225 30.1159 159.513 30.3017 158.63 30.3017ZM159.741 27.0651C160.41 27.0651 160.944 26.8222 161.343 26.3363C161.756 25.8505 161.963 25.2432 161.963 24.5144C161.963 23.7999 161.756 23.2069 161.343 22.7354C160.944 22.2638 160.41 22.028 159.741 22.028C159.071 22.028 158.53 22.2638 158.117 22.7354C157.719 23.2069 157.519 23.7999 157.519 24.5144C157.519 25.2432 157.719 25.8505 158.117 26.3363C158.53 26.8222 159.071 27.0651 159.741 27.0651ZM169.393 30.023C168.517 30.023 167.806 29.3125 167.806 28.4359V22.3067C167.806 21.2778 168.098 20.4704 168.682 19.8846C169.28 19.2844 170.106 18.9843 171.16 18.9843H173.078C173.883 18.9843 174.535 19.6369 174.535 20.4419C174.535 21.2468 173.883 21.8994 173.078 21.8994H172.292C172.065 21.8994 171.879 21.9708 171.737 22.1138C171.595 22.2567 171.523 22.4424 171.523 22.6711V28.4359C171.523 29.3125 170.813 30.023 169.936 30.023H169.393ZM177.468 30.023C176.592 30.023 175.881 29.3125 175.881 28.4359V23.6785C175.881 22.7354 176.109 21.8923 176.565 21.1492C177.035 20.3919 177.69 19.7988 178.531 19.3702C179.385 18.9415 180.382 18.7271 181.521 18.7271C182.661 18.7271 183.643 18.9415 184.469 19.3702C185.296 19.7988 185.929 20.3919 186.371 21.1492C186.812 21.8923 187.033 22.7354 187.033 23.6785V28.4359C187.033 29.3125 186.322 30.023 185.446 30.023H184.903C184.026 30.023 183.316 29.3125 183.316 28.4359V23.8499C183.316 23.3641 183.145 22.9354 182.803 22.5639C182.461 22.1923 182.013 22.0066 181.457 22.0066C180.902 22.0066 180.446 22.1923 180.09 22.5639C179.748 22.9354 179.577 23.3641 179.577 23.8499V28.4359C179.577 29.3125 178.867 30.023 177.99 30.023H177.468ZM190.737 30.023C189.86 30.023 189.15 29.3125 189.15 28.4359V20.5714C189.15 19.6949 189.86 18.9843 190.737 18.9843H191.28C192.157 18.9843 192.867 19.6949 192.867 20.5715V28.4359C192.867 29.3125 192.157 30.023 191.28 30.023H190.737ZM191.009 17.784C190.439 17.784 189.947 17.5768 189.535 17.1624C189.136 16.748 188.936 16.2622 188.936 15.7049C188.936 15.1333 189.136 14.6474 189.535 14.2473C189.947 13.8329 190.439 13.6257 191.009 13.6257C191.578 13.6257 192.062 13.8329 192.461 14.2473C192.874 14.6474 193.081 15.1333 193.081 15.7049C193.081 16.2622 192.874 16.748 192.461 17.1624C192.062 17.5768 191.578 17.784 191.009 17.784ZM196.599 30.023C195.723 30.023 195.012 29.3125 195.012 28.4359V23.6785C195.012 22.7354 195.24 21.8923 195.696 21.1492C196.166 20.3919 196.821 19.7988 197.661 19.3702C198.516 18.9415 199.513 18.7271 200.652 18.7271C201.792 18.7271 202.774 18.9415 203.6 19.3702C204.426 19.7988 205.06 20.3919 205.502 21.1492C205.943 21.8923 206.164 22.7354 206.164 23.6785V28.4359C206.164 29.3125 205.453 30.023 204.577 30.023H204.034C203.157 30.023 202.447 29.3125 202.447 28.4359V23.8499C202.447 23.3641 202.276 22.9354 201.934 22.5639C201.592 22.1923 201.143 22.0066 200.588 22.0066C200.033 22.0066 199.577 22.1923 199.221 22.5639C198.879 22.9354 198.708 23.3641 198.708 23.8499V28.4359C198.708 29.3125 197.997 30.023 197.121 30.023H196.599ZM211.555 34.3742C210.679 34.3742 209.969 33.6641 209.969 32.7881C209.969 31.9121 210.679 31.2019 211.555 31.2019H215.331C215.573 31.2019 215.765 31.1305 215.907 30.9876C216.05 30.859 216.121 30.6875 216.121 30.4732V28.345C216.121 28.3129 216.095 28.2869 216.063 28.2869C216.046 28.2869 216.029 28.2946 216.018 28.3078C215.665 28.727 215.237 29.0701 214.732 29.3372C214.234 29.6086 213.6 29.7444 212.831 29.7444C211.863 29.7444 211.008 29.5158 210.268 29.0585C209.527 28.587 208.943 27.9511 208.516 27.1508C208.103 26.3506 207.896 25.4504 207.896 24.4501C207.896 23.4213 208.124 22.471 208.58 21.5993C209.036 20.7277 209.705 20.0346 210.588 19.5202C211.471 18.9915 212.546 18.7271 213.814 18.7271C215.024 18.7271 216.078 18.9772 216.975 19.4773C217.887 19.9775 218.592 20.6777 219.091 21.5779C219.589 22.4638 219.838 23.507 219.838 24.7073V31.0519C219.838 32.0807 219.539 32.8881 218.941 33.474C218.343 34.0741 217.503 34.3742 216.42 34.3742H211.555ZM213.878 26.7221C214.519 26.7221 215.039 26.5007 215.438 26.0577C215.85 25.6147 216.057 25.0788 216.057 24.4501C216.057 23.7785 215.85 23.214 215.438 22.7568C215.039 22.2852 214.519 22.0494 213.878 22.0494C213.223 22.0494 212.689 22.2781 212.276 22.7354C211.877 23.1783 211.678 23.7356 211.678 24.4072C211.678 25.0503 211.877 25.6004 212.276 26.0577C212.689 26.5007 213.223 26.7221 213.878 26.7221Z" fill="#000035"/>
</svg>
