<svg width="48" height="48" viewBox="0 0 48 48" fill="none" xmlns="http://www.w3.org/2000/svg">
<path d="M48 24C48 37.2548 37.2548 48 24 48C10.7452 48 0 37.2548 0 24C0 10.7452 10.7452 0 24 0C37.2548 0 48 10.7452 48 24Z" fill="#000035"/>
<path d="M32.7583 24.1136L36.3981 15.9241L43.4502 32.9857H35.9431L32.7583 24.1136Z" fill="#14A3DC" stroke="#14A3DC" stroke-width="1.38323" stroke-linejoin="round"/>
<path d="M10.2369 23.7726L13.8767 15.583L20.9289 32.6446H13.4218L10.2369 23.7726Z" fill="#14A3DC" stroke="#14A3DC" stroke-width="1.38323" stroke-linejoin="round"/>
<path d="M34.8057 8.9856H26.5273L16.0379 32.6444L24.7962 32.7581L34.8057 8.9856Z" fill="#FF792E" stroke="#FF792E" stroke-width="1.45903" stroke-linejoin="round"/>
<path d="M22.1801 8.9856H13.9906L3.41235 32.54L12.1706 32.6444L22.1801 8.9856Z" fill="#FE4A00" stroke="#FE4A00" stroke-width="1.45903" stroke-linejoin="round"/>
</svg>
