<svg width="45" height="45" viewBox="0 0 45 45" fill="none" xmlns="http://www.w3.org/2000/svg">
<path d="M29.4 22.5C29.4 23.7658 29.0246 25.0032 28.3214 26.0556C27.6182 27.1081 26.6186 27.9284 25.4492 28.4128C24.2797 28.8972 22.9929 29.024 21.7514 28.777C20.5099 28.5301 19.3696 27.9205 18.4745 27.0255C17.5795 26.1304 16.9699 24.9901 16.723 23.7486C16.476 22.5071 16.6028 21.2203 17.0872 20.0508C17.5716 18.8814 18.3919 17.8818 19.4444 17.1786C20.4968 16.4754 21.7342 16.1 23 16.1C24.6968 16.102 26.3235 16.7769 27.5233 17.9767C28.7231 19.1765 29.398 20.8032 29.4 22.5ZM43 13.7V31.3C42.9966 34.2694 41.8155 37.1162 39.7159 39.2159C37.6162 41.3155 34.7694 42.4966 31.8 42.5H14.2C11.2306 42.4966 8.38382 41.3155 6.28415 39.2159C4.18447 37.1162 3.00339 34.2694 3 31.3V13.7C3.00339 10.7306 4.18447 7.88382 6.28415 5.78415C8.38382 3.68447 11.2306 2.50339 14.2 2.5H31.8C34.7694 2.50339 37.6162 3.68447 39.7159 5.78415C41.8155 7.88382 42.9966 10.7306 43 13.7ZM32.6 22.5C32.6 20.6013 32.037 18.7452 30.9821 17.1665C29.9272 15.5878 28.4279 14.3574 26.6738 13.6308C24.9196 12.9042 22.9894 12.714 21.1271 13.0845C19.2649 13.4549 17.5544 14.3692 16.2118 15.7118C14.8692 17.0544 13.9549 18.7649 13.5845 20.6271C13.214 22.4894 13.4042 24.4196 14.1308 26.1738C14.8574 27.9279 16.0878 29.4272 17.6665 30.4821C19.2452 31.537 21.1013 32.1 23 32.1C25.5452 32.0971 27.9853 31.0848 29.7851 29.2851C31.5848 27.4853 32.5971 25.0452 32.6 22.5ZM35.8 12.1C35.8 11.6253 35.6592 11.1613 35.3955 10.7666C35.1318 10.372 34.757 10.0643 34.3184 9.88269C33.8799 9.70104 33.3973 9.65351 32.9318 9.74612C32.4662 9.83872 32.0386 10.0673 31.7029 10.4029C31.3673 10.7386 31.1387 11.1662 31.0461 11.6318C30.9535 12.0973 31.001 12.5799 31.1827 13.0184C31.3643 13.457 31.672 13.8318 32.0666 14.0955C32.4613 14.3592 32.9253 14.5 33.4 14.5C34.0365 14.5 34.647 14.2471 35.0971 13.7971C35.5471 13.347 35.8 12.7365 35.8 12.1Z" fill="#000035"/>
</svg>
