<svg width="45" height="46" viewBox="0 0 45 46" fill="none" xmlns="http://www.w3.org/2000/svg">
<path d="M10.3038 3C6.2578 3 3 6.2578 3 10.3038V35.6963C3 39.7422 6.2578 43 10.3038 43H24.0663V27.3625H19.9313V21.7325H24.0663V16.9225C24.0663 13.1435 26.5094 9.67376 32.1375 9.67376C34.4162 9.67376 36.1013 9.89252 36.1013 9.89252L35.9688 15.15C35.9688 15.15 34.2502 15.1338 32.375 15.1338C30.3454 15.1338 30.02 16.0689 30.02 17.6213V21.7326H36.13L35.8638 27.3626H30.02V43.0001H35.6962C39.7422 43.0001 43 39.7423 43 35.6963V10.3038C43 6.25784 39.7422 3.00004 35.6962 3.00004L10.3038 3Z" fill="#FE4A00"/>
</svg>
