<svg width="85" height="86" viewBox="0 0 85 86" fill="none" xmlns="http://www.w3.org/2000/svg">
<g clip-path="url(#clip0_158_106)">
<path d="M22.4662 73.6522L23.8558 74.3471C29.6464 77.8212 36.1313 79.4425 42.6165 79.4425C62.9983 79.4425 79.6742 62.7666 79.6742 42.3848C79.6742 32.6573 75.7367 23.1612 68.7886 16.2128C61.8402 9.26437 52.5755 5.32715 42.6165 5.32715C22.2348 5.32715 5.55853 22.0031 5.79029 42.6166C5.79029 49.5647 7.87478 56.2817 11.3488 62.0716L12.2752 63.4615L8.56972 77.1266L22.4662 73.6522Z" fill="#00E676"/>
<path d="M72.7258 12.507C64.851 4.40074 53.9654 0 42.848 0C19.2239 0 0.231758 19.2236 0.463184 42.6162C0.463184 50.0278 2.54768 57.208 6.02205 63.6929L0 85.6959L22.4662 79.9056C28.7197 83.38 35.6678 85.0013 42.6165 85.0013C66.0091 85.0013 85.0013 65.7774 85.0013 42.3851C85.0013 31.036 80.6006 20.3817 72.7261 12.507H72.7258ZM42.848 77.8215C36.5945 77.8215 30.341 76.2005 25.0139 72.9579L23.6244 72.263L10.191 75.737L13.6651 62.5354L12.7387 61.1455C2.54768 44.7014 7.4116 22.9294 24.0875 12.7384C40.7635 2.54768 62.3033 7.4116 72.4944 24.0875C82.6851 40.7635 77.8212 62.3033 61.1455 72.4944C55.8181 75.9684 49.3332 77.8212 42.848 77.8212V77.8215ZM63.2297 52.113L60.682 50.9548C60.682 50.9548 56.9766 49.3335 54.6603 48.1754C54.4286 48.1754 54.1971 47.9437 53.9654 47.9437C53.2704 47.9437 52.8072 48.1754 52.3441 48.4072C52.3441 48.4072 52.1126 48.6386 48.87 52.3444C48.6383 52.8076 48.1751 53.0393 47.7119 53.0393H47.4801C47.2487 53.0393 46.7855 52.8076 46.5538 52.5762L45.3956 52.113C42.848 50.9548 40.5321 49.565 38.679 47.7122C38.2158 47.249 37.5209 46.7859 37.0577 46.3227C35.4364 44.7014 33.8151 42.8483 32.6573 40.7638L32.4255 40.3006C32.1941 40.0689 32.1941 39.8374 31.9623 39.3743C31.9623 38.9111 31.9623 38.4479 32.1941 38.2161C32.1941 38.2161 33.1204 37.058 33.8151 36.3634C34.2786 35.8999 34.51 35.2053 34.9732 34.7421C35.4364 34.0471 35.6681 33.1208 35.4364 32.4258C35.2049 31.2677 32.4255 25.0142 31.7309 23.6247C31.2674 22.9297 30.8045 22.6983 30.1096 22.4666H27.5619C27.0984 22.4666 26.6355 22.6983 26.172 22.6983L25.9403 22.9297C25.4771 23.1615 25.0139 23.6247 24.5507 23.8561C24.0875 24.3196 23.8558 24.7825 23.3926 25.246C21.7713 27.3305 20.8449 29.8782 20.8449 32.4258C20.8449 34.2786 21.3081 36.1316 22.003 37.7529L22.2348 38.4479C24.3193 42.8483 27.0984 46.7859 30.8045 50.2599L31.7309 51.1863C32.4255 51.8812 33.1204 52.3444 33.5836 53.039C38.4476 57.2083 44.0061 60.2192 50.2596 61.8405C50.9545 62.0719 51.8809 62.0719 52.5758 62.3037H54.8917C56.0499 62.3037 57.4394 61.8405 58.3661 61.3773C59.0607 60.9141 59.5239 60.9141 59.9871 60.4509L60.4506 59.9874C60.9138 59.5242 61.377 59.2928 61.8402 58.8296C62.3033 58.3664 62.7665 57.9033 62.9983 57.4397C63.4615 56.5134 63.6929 55.3553 63.9246 54.1975V52.5762C63.9246 52.5762 63.6929 52.3444 63.2297 52.113Z" fill="white"/>
</g>
<defs>
<clipPath id="clip0_158_106">
<rect width="85" height="85.9961" fill="white"/>
</clipPath>
</defs>
</svg>
